<?xml version="1.0" encoding="utf-8"?>
<!-- Generator: Adobe Illustrator 19.0.0, SVG Export Plug-In . SVG Version: 6.00 Build 0)  -->
<svg version="1.1" id="图层_1" xmlns="http://www.w3.org/2000/svg" xmlns:xlink="http://www.w3.org/1999/xlink" x="0px" y="0px"
	 viewBox="0 0 80 56" style="enable-background:new 0 0 80 56;" xml:space="preserve">
<style type="text/css">
	.st0{fill-rule:evenodd;clip-rule:evenodd;fill:#FFFFFF;}
</style>
<g>
	<path class="st0" d="M73.9,41.2c-1.9,0-3.6-0.8-4.9-2c-1.2,2.1-3.4,3.5-5.9,3.5h-3.5c-1.6,0-3-1.3-3-3l6.6,0c2.2,0,3.9-1.7,3.9-3.9
		c0,0,0-22.9,0-22.9h0c1.6,0,3,1.3,3,2.9l0,18.6c0,0,0,0,0,0c0,2.2,1.7,3.9,3.9,3.9c0,0,2,0,4.8,0v3H73.9z M73.7,29.5V11
		c0-2.2-1.7-3.9-3.9-3.9c0,0-6.5,0-6.5,0l0,10.5c0,1.6-1.3,2.9-3,2.9l0-19.2l3,0v2.8l6.5,0c3.8,0,6.9,3.1,6.9,6.9v21.4
		C75,32.4,73.7,31.1,73.7,29.5z M7.3,9.7c0-1.3,1.1-2.4,2.4-2.4c1.3,0,2.4,1.1,2.4,2.4c0,1.3-1.1,2.4-2.4,2.4
		C8.3,12.1,7.3,11.1,7.3,9.7z M63.4,32.5l-6.4,0l0,4c-0.4,3.4-3.3,6.2-6.8,6.2h0h0l-37.5,0c-4.1,0-7.5-3.3-7.5-7.5
		c0-0.8,0-18.4,0-18.4c-2.3-1.5-3.9-4.1-3.9-7c0-4.6,3.7-8.3,8.3-8.3c4.6,0,8.3,3.7,8.3,8.3c0,4.1-3,7.5-6.9,8.2v-3.1
		c2.2-0.6,3.9-2.7,3.9-5.1c0-2.9-2.4-5.3-5.3-5.3c-2.9,0-5.3,2.4-5.3,5.3c0,1.9,1,3.5,2.4,4.5c0.8,0.5,1.4,1.5,1.4,2.5
		c0,0,0,17.3,0,18.4h0c0,2.5,2,4.5,4.5,4.5l37.5,0c1.9,0,3.5-1.4,3.8-3.2v-4l-3.3,0c-3.7,0-6.7-3.1-6.7-6.8V10.7l0,0v0
		c1.6,0,2.9,1.3,2.9,2.9l0,0v12.1c0,2.1,1.7,3.8,3.8,3.9l3.4,0V11c0-4-3.6-3.9-3.6-3.9h-6.7l0,0c-1.6,0-2.9-1.3-2.9-2.9h0l0,0h9.5v0
		C54.1,4.3,57,7.3,57,11v18.5l6.4,0V32.5z M39.6,36.6c-1.5,0-2.8-1.3-2.8-2.8v-4.7h2.8L39.6,36.6L39.6,36.6L39.6,36.6z M19.4,31v5.6
		h0h0c-1.5,0-2.8-1.3-2.8-2.8v-4.7h2.8L19.4,31L19.4,31z M29.5,18v4.2h10.1v3H29.5l0,11.4c-1.6,0-2.8-1.3-2.8-2.8l0,0l0-8.6H16.6
		c-1.6,0-3-1.3-3-3v0l13,0l0-4.2l-6.2,0c-1.6,0-3-1.3-3-3h19.2v-2.7c0-2.5-2-4.5-4.5-4.5l-9.3,0l0,0c-1.6,0-2.9-1.3-2.9-2.9l0,0
		l12.3,0c4.1,0,7.5,3.4,7.5,7.5c0,0.6,0,5.6,0,5.6H29.5z M7.4,48.7h2v1H8.1v4h0v1c-0.5,0-1-0.4-1-1h0v0c0,0,0,0,0,0c0,0,0,0,0,0v-4
		H6.4c-0.6,0-1-0.4-1-1L7.4,48.7L7.4,48.7z M18,48.7c3.8,0,3.8,5.9,0,5.9C14.1,54.6,14.2,48.7,18,48.7z M18,53.6c2.4,0,2.4-4,0-4
		C15.5,49.7,15.5,53.6,18,53.6z M27.1,51.1v1v1.5h0v1c-0.5,0-1-0.4-1-1v0h0v-5h1V51.1z M29.6,48.7h1v4h0v2c-0.5,0-1-0.4-1-1h0v0
		c0,0,0,0,0,0c0,0,0,0,0,0v-1.5h-1h0c-0.6,0-1-0.4-1-1c0,0,0,0,0,0h2V48.7z M37.6,51.1h1h1.5v1h-1.5v0C38,52.1,37.6,51.7,37.6,51.1z
		 M37.4,48.7L37.4,48.7L37.4,48.7h2.7v1h-2.8c-0.1,0-0.2,0.1-0.2,0.2v0.4h0v2.3h0v0.9c0,0.1,0.1,0.2,0.3,0.2v0h2.7v1h-2.7l0,0
		c-0.7,0-1.2-0.6-1.2-1.2v-3.5C36.1,49.2,36.7,48.7,37.4,48.7z M48.7,48.7c0.4,0,0.7,0.2,0.8,0.6l1.6,5.4h-1.1l-1.3-4.5l0,0
		c0-0.1-0.1-0.1-0.1-0.1c-0.1,0-0.1,0.1-0.1,0.1l0,0l-1.2,4.5h-1.1l1.5-5.4C47.9,48.9,48.3,48.7,48.7,48.7z M58.1,53.4
		c0,0.1,0.1,0.2,0.2,0.2v0h1.9v1h-1.9l0,0c-0.7,0-1.2-0.6-1.2-1.2l0,0v-4.7h1V53.4z M66.4,48.7h2v1h-1.3v4h0v1c-0.5,0-1-0.4-1-1h0v0
		c0,0,0,0,0,0c0,0,0,0,0,0v-4h-0.7c-0.6,0-1-0.4-1-1L66.4,48.7L66.4,48.7z M75.2,51.1v1v1.5h0v1c-0.5,0-1-0.4-1-1h0v-5h1V51.1z
		 M77.7,48.7h1v4h0v2c-0.5,0-1-0.4-1-1h0v-1.5h-1h0c-0.6,0-1-0.4-1-1v0h2V48.7z"/>
</g>
</svg>
