<?xml version="1.0" encoding="utf-8"?>
<!-- Generator: Adobe Illustrator 19.0.0, SVG Export Plug-In . SVG Version: 6.00 Build 0)  -->
<svg version="1.1" id="图层_1" xmlns="http://www.w3.org/2000/svg" xmlns:xlink="http://www.w3.org/1999/xlink" x="0px" y="0px"
	 viewBox="0 0 50 50" style="enable-background:new 0 0 50 50;" xml:space="preserve">
<style type="text/css">
	.st0{fill:#3BBE7A;}
</style>
<g>
	<g id="XMLID_63_">
		<path id="XMLID_64_" class="st0" d="M25,0C11.2,0,0,11.2,0,25c0,13.8,11.2,25,25,25c13.8,0,25-11.2,25-25C50,11.2,38.8,0,25,0z
			 M31.5,13.6c2.7,0,4.9,1.9,4.9,4.6c0,0.4,0,1.5,0,2.4l0,1.3h-1.9h-4.4v2.6h6.4v1.9h-6.4v7.6l0,0c-1,0-1.9-0.9-1.9-1.9v-5.7h-7l0,0
			c-1.1,0-1.9-0.9-1.9-1.9c0,0,0,0,0,0l8.9,0V22h-4.5v0c-1.1,0-1.9-0.9-1.9-1.9h0H26h8.5l0-1.8c0-1.6-1.3-2.6-3-2.6h-6.4l0,0
			c-1.1,0-1.9-0.9-1.9-1.9l0,0L31.5,13.6z M36.4,34.1L36.4,34.1c-1,0-1.9-0.9-1.9-1.9V29h1.9L36.4,34.1z M23,34.1L23,34.1
			c-1,0-1.9-0.9-1.9-1.9V29H23L23,34.1z M18.8,38C16.1,38,14,36,14,33.3c0-0.5,0-12,0-12c-1.5-1-3-2.9-3-4.8c0-3,2.5-5.5,5.5-5.5
			c3,0,5.5,2.4,5.5,5.5c0,2.7-2.3,5-4.8,5.5v-2c1.5-0.4,2.9-1.9,2.9-3.5c0-1.9-1.6-3.5-3.5-3.5c-1.9,0-3.6,1.6-3.6,3.5
			c0,1.2,1.1,2.5,2,3.2c0.5,0.3,0.9,1,0.9,1.7c0,0,0,12,0,12c0,1.6,1.2,2.7,2.8,2.7c0,0,18.1,0,18.9,0c1.3,0,1.9,1.9,1.9,1.9
			L18.8,38z M16.6,18c-0.9,0-1.6-0.7-1.6-1.6c0-0.9,0.7-1.6,1.6-1.6c0.9,0,1.6,0.7,1.6,1.6C18.1,17.3,17.4,18,16.6,18z"/>
	</g>
</g>
</svg>
